<svg width="18" height="14" viewBox="0 0 18 14" fill="none" xmlns="http://www.w3.org/2000/svg">
<path d="M4.50194 5.77734C4.6552 5.77734 4.74848 5.77734 4.83511 5.77734C8.77982 5.77734 12.7312 5.77734 16.6759 5.77734C17.5222 5.77734 18.0885 6.3844 17.9886 7.17423C17.9153 7.7356 17.4289 8.17947 16.8425 8.21864C16.7425 8.22517 16.6426 8.22517 16.5426 8.22517C12.6312 8.22517 8.71318 8.22517 4.80179 8.22517C4.70184 8.22517 4.60189 8.22517 4.50194 8.22517C4.48195 8.25128 4.4553 8.27739 4.4353 8.29697C4.5086 8.34266 4.58856 8.3753 4.6552 8.43405C5.90125 9.56332 7.14063 10.6926 8.38668 11.8218C9.00637 12.3832 9.01304 13.2318 8.40667 13.7214C7.90692 14.1261 7.22059 14.0869 6.70751 13.6235C5.28822 12.331 3.86892 11.0451 2.44962 9.75261C1.78995 9.15208 1.13028 8.55807 0.477267 7.95754C-0.155753 7.37659 -0.162416 6.60633 0.477267 6.03844C2.61621 4.14545 4.75515 2.25246 6.90075 0.359465C7.42716 -0.103991 8.13347 -0.117046 8.6199 0.307245C9.08633 0.718481 9.17296 1.42346 8.79981 1.92608C8.70652 2.05663 8.57992 2.1676 8.45331 2.27857C7.19394 3.38825 5.93456 4.50446 4.67519 5.61415C4.63521 5.65331 4.59523 5.69248 4.50194 5.77734Z" fill="#8D8F91"/>
</svg>
